# xmcd CD database file
#
# Track frame offsets:
#	150
#	4500
#	17042
#	30447
#	42987
#	59457
#	70825
#	82520
#	96260
#	105892
#	118662
#	129757
#	142142
#	149897
#	161067
#	176715
#	184727
#	196570
#	212357
#	222110
#
# Disc length: 3033 seconds
#
# Revision: 5
# Processed by: cddbd v1.5.1PL0 Copyright (c) Steve Scherf et al.
# Submitted via: CDex 1.51
#
DISCID=0a0bd714
DTITLE=Hank Williams - Lost Highway
DYEAR=2000
DGENRE=Country
TTITLE0=Happy Rovin' Cowboy
TTITLE1=Lovesick Blues
TTITLE2=A Mansion on the Hill
TTITLE3=You're Gonna Change (Or I'm Gonna Leave)
TTITLE4=A Tramp On the Street
TTITLE5=I'm A Long Gone Daddy
TTITLE6=When God Comes and Gathers All His Jewels
TTITLE7=Lost Highway
TTITLE8=I'll Have a New Body (I'll Have a New Life)
TTITLE9=I Can't Get You Off My Mind
TTITLE10=The Prodigal Son
TTITLE11=Pan American
TTITLE12=There'll Be No Teardrops Tonight
TTITLE13=Mind Your Own Business
TTITLE14=Wedding Bells
TTITLE15=I've Just Told Mama Goodbye
TTITLE16=I'm So Lonesome, I Could Cry
TTITLE17=Thy Burdens Are Greater Than Mine
TTITLE18=I Saw The Light
TTITLE19=Sally Goodin
EXTD=Music Digital CD 60053 - Delta Music Ltd. UK 1997 YEAR: 2000
EXTT0=
EXTT1=
EXTT2=
EXTT3=
EXTT4=
EXTT5=
EXTT6=
EXTT7=
EXTT8=
EXTT9=
EXTT10=
EXTT11=
EXTT12=
EXTT13=
EXTT14=
EXTT15=
EXTT16=
EXTT17=
EXTT18=
EXTT19=
PLAYORDER=
